# xmcd CD database file
#
# Track frame offsets:
#	150
#	14764
#	28292
#	45994
#	63767
#	76843
#	87831
#	101391
#	113970
#	125628
#	138301
#	152966
#
# Disc length: 2160 seconds
#
# Revision: 0
# Processed by: cddbd v1.5.2PL0 Copyright (c) Steve Scherf et al.
# Submitted via: CDex 1.51
#
DISCID=97086e0c
DTITLE=Various Artist - 100% Country CD 1
DYEAR=2006
DGENRE=Country
TTITLE0=Take me home, Country Roads - John Denver
TTITLE1=Nashville's gone Hollywood - Heidi Hauge
TTITLE2=Æ gir dæ handa mi - Ottar 'Big Hand' Johansen
TTITLE3=Skilt, Blakk og Bitter - Bjørn Jens
TTITLE4=Ruby don't take your love to town - Kenny Rogers
TTITLE5=King of the road - Roger Miller
TTITLE6=Rose Garden - Lynn Anderson
TTITLE7=Let your love flow - Bellamy Brothers
TTITLE8=Before the next teardrop falls - Freddy Fender
TTITLE9=I just fall in love again - Anne Murray
TTITLE10=Rhinestone Cowboy - Glenn Campbell
TTITLE11=Rawhide - Frankie Laine
EXTD=YEAR: 2006
EXTT0=
EXTT1=
EXTT2=
EXTT3=
EXTT4=
EXTT5=
EXTT6=
EXTT7=
EXTT8=
EXTT9=
EXTT10=
EXTT11=
PLAYORDER=
